<svg xmlns="http://www.w3.org/2000/svg" xml:space="preserve" width="415.188" height="418.005" viewBox="0 0 109.852 110.597"><defs><clipPath id="a" clipPathUnits="userSpaceOnUse"><path d="M4.845 11.435h33.53v89.542H4.845z" style="fill:#000;stroke-width:.264584"/></clipPath></defs><path d="M13.882 94.182c.71-.02 1.43-.066 2.118-.028l26.592-.124c.382-.419 1.035-.508 1.14-1.282l-.027-57.476c-.267-.59-.916-1.128-1.546-.718-.676.165-.587 1.137-.843 1.846l.026 54.588c-.973.437-2.188.078-3.256.201l-25.101.08q-.001-2.605-.004-5.211l23.89-.157c.414-.471 1.016-.395 1.093-1.259l-.002-10.746c-.328-1.086-1.487-.853-2.367-.852l-22.62.069-.002-6.222 23.889-.158c.413-.473 1.017-.392 1.094-1.259l-.007-10.744c-.222-.82-.955-.918-1.74-.855l-23.243.07-.002-6.222 23.84-.156c.585-.483 1.197-.554 1.141-1.553l-.004-9.946c-.325-1.089-1.483-.856-2.365-.854l-22.194.065-.046-18.038c-.183-.359-.595-.833-1.063-.849a.862 1.031.54 0 0-.478.153c-.62.333-.624 1.136-.848 1.923l.008 18.106c.329.691.57 1.281 1.265 1.485 1.293.29 2.8.03 4.174.106l18.984-.087c.405.803.053 2.105.162 3.102l-.02 3.495-24.1.157c-.628.3-.582 1.062-.884 1.795l.005 8.61c.348.629.4 1.18 1.006 1.36.832.49 1.99.147 2.974.24l20.864-.096c.407.803.055 2.103.164 3.102l-.02 4-24.025.155c-.726.367-.816 1.325-.957 2.146l.001 8.348c.375.485.398 1.127 1.005 1.273.568.44 1.537.181 2.322.243l21.52-.1c.405.803.052 2.103.16 3.103l-.02 3.998-24.024.155c-.746.379-.799 1.355-.957 2.122l.005 7.279c.331.691.57 1.28 1.267 1.485.646.145 1.346.152 2.056.132" clip-path="url(#a)" style="stroke-width:1.05251" transform="rotate(90 36.123 62.844)scale(.91646)"/><path d="M13.118 83.613a52 52 0 0 1-3.897-4.915 51.943 51.943 0 0 0 69.37.019 51.943 51.943 0 0 0 7.897-68.435 52 52 0 0 1 3.98 3.982 51.943 51.943 0 0 1-4 73.349 51.943 51.943 0 0 1-73.35-4" style="fill:#000;stroke-width:.253248"/></svg>
