<svg width="415.188" height="418.005" viewBox="0 0 109.852 110.597" xml:space="preserve" xmlns="http://www.w3.org/2000/svg">
    <path d="M189.532 26.814c0-6.826-5.493-12.356-12.272-12.356-6.78 0-12.359 5.443-12.359 12.356 0 6.912 5.493 12.355 12.359 12.355 6.865 0 12.272-5.53 12.272-12.355" style="fill:currentColor;stroke-width:.861124" transform="translate(-80.281 -13.767)"/>
    <path d="m137.18 124.364-.085-1.296c1.545-.087 3.09-.173 4.635-.346l.171 1.296c-1.544.173-3.175.26-4.72.346zm-4.805 0c-1.63-.087-3.176-.26-4.806-.432l.172-1.296c1.544.173 3.09.345 4.634.432zm14.246-1.21-.257-1.21c1.544-.345 3.003-.69 4.548-1.21l.343 1.21c-1.459.519-3.003.95-4.634 1.21zm-23.772-.173a46.414 46.414 0 0 1-4.635-1.296l.43-1.21c1.459.519 3.003.864 4.548 1.296zm32.955-2.592-.515-1.21c1.46-.605 2.832-1.21 4.291-1.987l.601 1.123a50.08 50.08 0 0 1-4.377 2.074zm-42.052-.346a39.29 39.29 0 0 1-4.291-2.073l.6-1.124c1.373.778 2.832 1.383 4.206 2.074zm50.634-4.06-.686-1.037c1.287-.865 2.574-1.729 3.862-2.679l.772 1.037c-1.287.95-2.66 1.814-3.948 2.678zm-59.045-.52c-1.373-.863-2.66-1.814-3.862-2.764l.773-1.037a60.65 60.65 0 0 0 3.776 2.765zm66.683-5.27-.858-.95c1.116-1.037 2.317-2.16 3.347-3.283l.944.864c-1.115 1.123-2.317 2.246-3.433 3.37zm-74.235-.604c-1.202-1.124-2.317-2.247-3.347-3.457l.944-.864c1.03 1.124 2.145 2.333 3.261 3.37zm80.758-6.48-1.03-.778a61.045 61.045 0 0 0 2.746-3.802l1.03.691c-.858 1.296-1.802 2.679-2.746 3.888zm-87.195-.692c-.944-1.296-1.888-2.592-2.746-3.975l1.03-.69c.858 1.295 1.716 2.591 2.66 3.887zm92.43-7.344-1.116-.605c.773-1.383 1.373-2.851 2.06-4.234l1.116.432zm-97.493-.864c-.687-1.47-1.373-2.938-1.974-4.407l1.116-.432c.6 1.47 1.201 2.852 1.973 4.32zm101.183-8.036-1.201-.432c.515-1.469.858-3.024 1.287-4.579l1.202.26a42.953 42.953 0 0 1-1.288 4.752zM82.684 85.31c-.429-1.555-.858-3.11-1.201-4.666l1.201-.26c.343 1.556.687 3.025 1.202 4.58zm106.934-8.554-1.288-.173c.172-1.555.344-3.11.43-4.666l1.287.087c0 1.555-.172 3.197-.429 4.752zM80.71 75.891c-.257-1.642-.343-3.197-.429-4.839l1.287-.086c.086 1.555.172 3.11.344 4.666zm108.135-8.727c-.086-1.555-.171-3.11-.343-4.666l1.287-.172c.172 1.555.344 3.197.344 4.838zM81.57 66.3l-1.288-.086c.086-1.642.258-3.197.43-4.839l1.287.26c-.172 1.555-.343 3.11-.43 4.666Zm106.16-8.467c-.343-1.556-.686-3.11-1.2-4.58l1.2-.345c.43 1.555.859 3.11 1.202 4.665zm-104.873-.864-1.202-.26a47.22 47.22 0 0 1 1.288-4.666l1.201.432a38.587 38.587 0 0 0-1.287 4.493zm102.127-8.122c-.6-1.47-1.201-2.938-1.973-4.32l1.115-.605c.687 1.469 1.373 2.937 1.974 4.406zm-99.21-.864-1.2-.432a39.765 39.765 0 0 1 2.059-4.32l1.116.604a61.353 61.353 0 0 0-1.974 4.148zm4.378-8.295-1.03-.691c.858-1.383 1.802-2.679 2.746-3.889l1.03.778c-1.03 1.21-1.888 2.506-2.746 3.802zm5.75-7.43-.944-.865c1.115-1.21 2.231-2.333 3.433-3.37l.858.95a40.313 40.313 0 0 0-3.347 3.284zm6.951-6.308-.772-1.037c1.287-.95 2.575-1.901 3.948-2.765l.686 1.037c-1.373.95-2.66 1.814-3.862 2.765zm57.5-4.666a92.298 92.298 0 0 0-4.205-1.987l.43-1.21a39.274 39.274 0 0 1 4.29 2.074zm-49.604-.346-.6-1.123c1.458-.691 2.917-1.383 4.376-1.987l.515 1.123a65.124 65.124 0 0 0-4.291 1.987zm40.937-3.283c-1.46-.519-3.004-.864-4.549-1.21l.258-1.21a46.41 46.41 0 0 1 4.634 1.297zm-32.27-.26-.342-1.21c1.544-.431 3.09-.863 4.634-1.209l.258 1.21c-1.545.345-3.09.777-4.549 1.21zm23.173-1.9c-1.545-.173-3.09-.346-4.635-.432l.086-1.296c1.631.086 3.176.26 4.806.431zm-13.99-.087-.171-1.296c1.545-.173 3.175-.345 4.806-.345l.086 1.296c-1.63 0-3.175.173-4.72.345z" style="fill:currentColor;stroke-width:.861124" transform="translate(-80.281 -13.767)"/>
    <path style="fill:currentColor;stroke-width:.633469" d="M135.207 27.46c-3.748 0-7.495.324-10.01.972-18.604 4.794-31.508 21.415-31.547 40.633-.014 7.353.925 11.315 4.433 18.695 2.323 4.887 3.728 6.868 7.673 10.823 6.692 6.71 14.755 10.786 24.4 12.337 1.042.168 4.09.195 6.774.062 15.42-.766 28.942-9.637 35.4-23.222 3.509-7.38 4.448-11.342 4.433-18.695-.038-19.218-12.942-35.839-31.546-40.633-2.515-.648-6.263-.972-10.01-.972zm-3.117 21.873.295.194.295.194h1.578l.353-.183.353-.183v3.12h-2.874v-3.141zm-4.79.014.266.187.267.187h1.689l.266-.187.267-.187v3.128H127.3v-3.128zm14.131 0 .266.187.267.186.781-.001h.782l.343-.18.343-.178h.093V52.354l-.549.001h-.548l.368-.368.37-.369v-.801l-.37-.369-.368-.368h-.682l-.355.298-.355.3-.074.291-.072.291.112.297.113.296.27.25.268.252H141.431v-3.008zm9.221.008.372.192.371.192.796-.045.797-.046.21-.096.209-.097v2.9h-.976l.368-.368.368-.369v-.801l-.368-.369-.368-.368h-.683l-.368.31-.368.31v.983l.321.336.322.336H150.652v-3zm9.341 0 .378.195.377.195.79-.06.79-.06.27-.086.27-.086v2.902h-1.06l.35-.35.35-.35v-.838l-.368-.369-.369-.368h-.682l-.368.31-.368.31V51.735l.368.31.368.31h-1.096v-3zm-23.472 0 .293.192.293.193.875-.045.874-.046.21-.096.21-.098v3.02h-2.755v-3.12zm18.802 0 .353.183.354.183H157.545l.251-.176.251-.176.074.446.074.445v1.048l.002 1.047H157.1l.368-.368.368-.369v-.801l-.368-.369-.368-.368h-.682l-.368.31-.369.31.004.498.004.498.146.189.146.188.24.137.239.138-.57.004-.568.003v-3zm-9.342.02.33.172.33.172h1.436l.33-.172.329-.172v2.98h-.976l.369-.368.368-.369v-.801l-.368-.369-.369-.368h-.596l-.262.139-.261.14-.146.19-.146.189-.004.499-.004.498.368.31.369.31h-1.097v-2.98zm-17.698.825-.371.347-.372.348v.765l.372.348.371.347h.702l.307-.201.307-.201.105-.248.105-.248-.057-.36-.057-.358-.33-.27-.328-.268h-.377l-.377-.001zm9.413 0-.343.202-.343.202-.131.319-.132.317.08.32.08.319.335.238.334.238h.716l.372-.347.372-.348v-.766l-.372-.347-.372-.347h-.596zm-4.647.065-.267.267-.267.268v.981l.333.287.334.287h.723l.35-.35.35-.35v-.724l-.286-.333-.287-.333h-.983zm9.448.174h.713l.249.316.248.315v.405l-.293.275-.293.276h-.658l-.277-.322-.276-.32v-.312l.294-.316.293-.317zm4.608 0h.631l.26.277.261.277v.481l-.269.243-.27.243-.146.083-.146.082-.34-.175-.339-.176-.13-.286-.13-.286.121-.232.122-.232.188-.15.187-.15zm4.625 0h.677l.26.277.26.277-.003.232-.004.232-.146.19-.145.19h-.001l-.268.143-.268.142-.346-.178-.346-.18-.075-.193-.074-.194v-.46l.24-.239.24-.24zm4.67 0h.71l.244.262.244.262-.004.247-.004.247-.145.19-.146.19-.269.143-.268.142-.346-.178-.345-.18-.075-.193-.075-.194v-.46l.24-.239.24-.24zm4.67 0h.71l.245.262.244.262-.004.247-.005.247-.145.19-.145.19h-.001l-.27.143-.268.144-.27-.144-.27-.143-.146-.19-.146-.19-.004-.27-.004-.27.24-.239.24-.24zm-32.368.02.274.14.274.139.15.24.148.24-.113.32-.113.32-.357.124-.357.124-.281-.128-.282-.128-.14-.308-.14-.308.22-.295.22-.296.25-.092.247-.092zm8.85.07h.692l.276.32.277.322v.212l-.277.321-.276.322h-.692l-.276-.322-.276-.32v-.213l.276-.321.276-.321zm-4.025.003.28.07.278.07.14.308.14.308-.008.025-.007.024-.125.257-.124.257-.257.115-.257.115-.33-.115-.33-.114-.072-.288-.072-.287.075-.298.075-.297.297-.075.297-.075zm-10.47.832a.496.496 0 0 1 .239.043l.071 6.013c-.019.072.048.201-.042.225-.92.034-1.843.022-2.764.031l-.092-6.22.09-.06 2.25-.026c.082.005.166-.005.248-.006zm.091 1.164-2.505.03.047 3.971c.635-.003 1.27-.003 1.904-.01.205-.017.42.019.62-.035l-.066-3.956zm-16.253.73c.238.005.45.205.545.357l.11 7.677 11.3-.117c.449-.004 1.037-.108 1.208.354l.05 4.233c.033.425-.278.458-.573.666l-12.138.162.031 2.648 11.834-.123c.399-.03.773.009.89.357l.055 4.573c-.035.369-.343.337-.551.54l-12.162.163.031 2.648 11.516-.12c.448-.004 1.037-.108 1.209.353l.053 4.574c-.035.368-.342.338-.55.54l-12.163.163c.01.739.018 1.479.027 2.218l12.78-.135c.543-.057 1.163.091 1.656-.099l-.275-23.233c.127-.303.077-.716.42-.789.319-.177.652.049.791.299l.29 24.463c-.05.33-.382.37-.574.55l-13.539.16c-.7-.027-1.466.09-2.126-.028-.356-.084-.48-.334-.652-.627l-.037-3.098c.077-.327.099-.743.477-.907l12.231-.162-.009-1.702c-.06-.425.113-.98-.097-1.32l-10.956.129c-.4-.023-.892.091-1.183-.094-.31-.06-.325-.333-.518-.538l-.041-3.553c.068-.35.109-.758.477-.917l12.231-.163-.009-1.702c-.06-.425.113-.98-.098-1.32l-10.622.125c-.502-.036-1.09.115-1.516-.09-.309-.074-.338-.309-.518-.575l-.044-3.665c.15-.313.123-.637.442-.767l12.269-.164-.007-1.487c-.06-.424.113-.98-.097-1.32l-9.665.113c-.7-.027-1.466.09-2.126-.028-.355-.084-.48-.334-.651-.627l-.091-7.706c.11-.336.108-.678.422-.822a.439.439 0 0 1 .243-.067zm20.54.722h35.211v31.972h-35.212V53.98zm36.39 1.968h1.946l-.118.15-.118.149-.077.324-.078.325.167.484.167.484h-1.888v-1.916zm0 5.269H165.75l-.124.231-.124.232V62.695l.199.219.198.22h-2.073V61.216zm0 4.43H165.75l-.124.232-.124.232v.92l.187.267.186.266h-2.049v-1.916zm0 5.27H165.75l-.124.232-.124.231v.921l.187.266.186.266h-2.049v-1.916zm0 5.03h2.036v.09l-.179.15-.18.148V77.4l.124.232.124.232h-1.924v-1.916zm1.797.479h.12v.12h-.12v-.12zm-1.796 4.91h1.924l-.124.232-.124.231v.92l.187.267.186.266h-2.049v-1.916zm-31.975 5.96.27.07.268.073.22.002.218.002-.368.369-.369.368.004.38.004.38.146.185.146.185.296.204.296.205.303-.005.303-.003.251-.211.252-.21.138-.257.137-.256v-.597l-.368-.368-.369-.369h.717l.19-.073.19-.072-.024.64-.024.643-.042.8-.042.8-.36-.125-.36-.126-.71.052-.711.051-.301.283-.301.283v-3.304zm-4.67 0 .269.07.27.073.218.002.219.002-.369.369-.368.368v.775l.25.27.252.269.296.112.296.113.292-.073.291-.074.3-.355.298-.356v-.681l-.368-.369-.369-.368h.977v2.742l-.366-.127-.365-.128-.711.052-.71.051-.302.283-.3.283v-3.303zm21.435 0V90.3l-.369-.185-.369-.184-.707.052-.707.05-.279.263-.279.261h-.163V87.3l.189.072.19.073h.733l-.317.293-.316.294v1.048l.269.25.27.249.239.024.24.025.192-.014.194-.013.315-.316.316-.316v-.78l-.347-.372-.347-.372.257-.002.258-.002.27-.072.268-.072zm-6.047.027h1.377v2.862l-.366-.127-.365-.128-.71.052-.711.051-.301.283-.302.283v-3.276h1.378zm-6.048 0h2.755V90.192l-.308-.117-.307-.117h-1.268l-.436.296-.436.296V87.323zm14.131 0h2.755v2.9l-.21-.095-.21-.095-.69-.048-.692-.048-.476.248-.477.248v-3.11zm12.096 0v2.7l-1.125-.003-1.124-.002-.233.21-.232.21h-.16v-2.995h.986l-.367.376-.367.376.073.372.072.373.169.26.168.261.362.126.361.126.4-.166.399-.167.129-.242.13-.242v-.603l-.138-.303-.138-.303-.251-.085-.252-.086.36-.082.359-.082.209-.014.21-.015zm-4.79 0v2.902l-.27-.097-.27-.098-.855-.006-.856-.006-.232.21-.23.21h-.161v-2.995h.99l-.302.303-.302.302-.056.29-.055.291.184.38.184.381.397.166.397.166.41-.171.408-.171.13-.242.13-.242v-.603l-.139-.303-.138-.302-.25-.086-.252-.086.36-.082.358-.083.21-.014.21-.013zm-20.367.12-.284.186-.283.185-.143.346-.144.347.135.407.135.408.266.127.266.129.21.067.211.067.287-.11.287-.108.25-.27.252-.27v-.565l-.18-.35-.182-.35-.23-.122-.23-.124h-.623zm4.594 0-.317.294-.317.294V89.078l.27.244.27.244.281.068.282.07.275-.105.276-.105.25-.27.252-.27v-.767l-.348-.372-.347-.372h-.827zm9.458 0-.316.316-.315.316V89.078l.27.244.269.244.282.068.282.07.275-.105.275-.105.251-.27.251-.27v-.811l-.35-.35-.35-.35h-.824zm-23.34.24.247.003.247.004.19.147.19.145.14.262.139.261-.005.038v.001l-.005.037-.178.327v.001l-.178.327v.001l-.287.072-.287.072-.206-.04-.207-.041-.235-.315-.234-.315.081-.258.082-.258h.001l.252-.235.253-.236zm4.727 0h.424l.336.321.336.322v.4l-.294.317-.293.316h-.621l-.294-.294-.294-.294v-.388l.35-.35.35-.35zm4.67 0 .22.003.218.004.19.147.19.145.14.262.139.261v.266l-.294.294-.294.294h-.621l-.294-.316-.294-.317V88.383l.35-.35.35-.35zm4.743 0h.393l.316.316.315.316v.413l-.248.316-.248.315h-.562l-.194-.074-.194-.074-.179-.346-.179-.346.125-.232.124-.232.265-.186.266-.186zm4.606 0h.338l.315.316.316.316v.413l-.249.316-.248.315h-.581l-.24-.239-.24-.24v-.609l.295-.294.294-.294zm4.836 0h.411l.316.316.316.316v.524l-.277.26-.278.26h-.643l-.24-.239-.239-.24v-.61l.317-.293.317-.294zm4.428 0h.414l.316.316.316.316v.524l-.278.26-.277.26h-.601l-.26-.277-.26-.277v-.626l.315-.248.315-.248zm4.748 0h.456l.316.316.316.316v.524l-.277.26-.277.26h-.602l-.26-.277-.26-.277v-.534l.294-.294.294-.294z" transform="translate(-80.281 -13.767)"/>
</svg>
