<?xml version="1.0" encoding="UTF-8" standalone="no"?>
<!-- Created with Inkscape (http://www.inkscape.org/) -->

<svg
   width="109.8517mm"
   height="110.59705mm"
   viewBox="0 0 109.8517 110.59705"
   version="1.1"
   id="svg1"
   xml:space="preserve"
   inkscape:version="1.4.4 (dcaf3e7, 2026-05-05)"
   sodipodi:docname="inomeado.svg"
   xmlns:inkscape="http://www.inkscape.org/namespaces/inkscape"
   xmlns:sodipodi="http://sodipodi.sourceforge.net/DTD/sodipodi-0.dtd"
   xmlns="http://www.w3.org/2000/svg"
   xmlns:svg="http://www.w3.org/2000/svg"><sodipodi:namedview
     id="namedview1"
     pagecolor="#ffffff"
     bordercolor="#000000"
     borderopacity="0.25"
     inkscape:showpageshadow="2"
     inkscape:pageopacity="0.0"
     inkscape:pagecheckerboard="0"
     inkscape:deskcolor="#d1d1d1"
     inkscape:document-units="mm"
     inkscape:zoom="1"
     inkscape:cx="-27.5"
     inkscape:cy="54.5"
     inkscape:window-width="1920"
     inkscape:window-height="1017"
     inkscape:window-x="-8"
     inkscape:window-y="-8"
     inkscape:window-maximized="1"
     inkscape:current-layer="layer1" /><defs
     id="defs1" /><g
     inkscape:label="Camada 1"
     inkscape:groupmode="layer"
     id="layer1"
     transform="translate(-80.280985,-13.766632)"><g
       id="g18"
       transform="matrix(1.785906,0,0,1.7980248,-140.77512,-81.62803)"><path
         fill="#000080"
         d="m 184.95212,60.311592 c 0,-3.796332 -3.07549,-6.871837 -6.87183,-6.871837 -3.79635,0 -6.9199,3.02745 -6.9199,6.871837 0,3.84439 3.07551,6.871866 6.9199,6.871866 3.84438,0 6.87183,-3.075533 6.87183,-6.871866"
         id="path1"
         style="fill:#000000;stroke-width:0.48055" /><path
         fill="#808080"
         d="m 155.63865,114.56553 -0.0479,-0.7208 c 0.865,-0.0482 1.72999,-0.0962 2.59498,-0.19223 l 0.0962,0.72084 c -0.86499,0.0962 -1.77803,0.14425 -2.64303,0.19222 z m -2.69106,0 c -0.91306,-0.0482 -1.77804,-0.14426 -2.69109,-0.24014 l 0.0962,-0.7208 c 0.86499,0.0962 1.72998,0.19222 2.59495,0.24043 z m 7.97709,-0.67275 -0.14426,-0.67277 c 0.86499,-0.19222 1.68191,-0.38446 2.54689,-0.67276 l 0.19223,0.67276 c -0.81694,0.2883 -1.68192,0.52858 -2.59499,0.67277 z m -13.31119,-0.0962 c -0.86499,-0.19222 -1.72999,-0.43251 -2.59498,-0.72083 l 0.24042,-0.67276 c 0.81696,0.28834 1.68193,0.48056 2.54692,0.72082 z m 18.45306,-1.44164 -0.28834,-0.67277 c 0.81695,-0.33639 1.58584,-0.67275 2.40277,-1.10528 l 0.33639,0.62471 c -0.81694,0.43251 -1.63388,0.81696 -2.45082,1.15334 z m -23.54688,-0.19222 c -0.81692,-0.33639 -1.63386,-0.72083 -2.40274,-1.1533 l 0.33639,-0.62473 c 0.76885,0.43248 1.58582,0.76887 2.35468,1.1533 z m 28.35237,-2.25861 -0.38443,-0.57662 c 0.72082,-0.48056 1.44164,-0.96111 2.16245,-1.48972 l 0.43249,0.57667 c -0.72082,0.52861 -1.48967,1.00916 -2.21051,1.48967 z m -33.06176,-0.28829 c -0.76885,-0.48052 -1.48971,-1.00913 -2.16245,-1.53774 l 0.43249,-0.57667 c 0.67277,0.52861 1.39358,1.05722 2.1144,1.53777 z m 37.33866,-2.93132 -0.48055,-0.52864 c 0.62471,-0.57668 1.29748,-1.20135 1.87414,-1.82606 l 0.52859,0.48055 c -0.62473,0.6247 -1.29746,1.24943 -1.92218,1.87415 z m -41.56749,-0.33639 c -0.67277,-0.62472 -1.29746,-1.24939 -1.87412,-1.92221 l 0.5286,-0.48052 c 0.57666,0.62472 1.20136,1.29748 1.82607,1.87415 z m 45.21966,-3.60412 -0.57667,-0.43249 c 0.52861,-0.67277 1.05719,-1.39357 1.53776,-2.1144 l 0.57668,0.38444 c -0.48059,0.72081 -1.00916,1.4897 -1.53777,2.16245 z m -48.82377,-0.3844 c -0.52861,-0.72086 -1.05719,-1.44166 -1.53774,-2.21054 l 0.57666,-0.384453 c 0.48052,0.720843 0.96108,1.441663 1.48968,2.162453 z m 51.75511,-4.084693 -0.62472,-0.33638 c 0.43251,-0.76886 0.7689,-1.5858 1.15331,-2.35468 l 0.62474,0.24013 z m -54.59034,-0.48052 c -0.38444,-0.81697 -0.76888,-1.63388 -1.10527,-2.45082 l 0.62472,-0.24013 c 0.33638,0.81694 0.67277,1.58582 1.10527,2.40276 z m 56.65671,-4.46911 -0.67278,-0.24013 c 0.28835,-0.81694 0.48053,-1.68194 0.72083,-2.546901 l 0.67275,0.144314 c -0.19222,0.913047 -0.43246,1.778037 -0.7208,2.643037 z m -58.67503,-0.48055 c -0.24013,-0.86499 -0.48052,-1.72999 -0.67275,-2.594953 l 0.67275,-0.144307 c 0.19222,0.864991 0.38447,1.68193 0.67277,2.5469 z m 59.87641,-4.757438 -0.72086,-0.0961 c 0.0962,-0.864998 0.19223,-1.72999 0.24043,-2.594961 l 0.72082,0.04821 c 0,0.864998 -0.0962,1.778047 -0.24013,2.643038 z m -60.98165,-0.480553 c -0.14431,-0.913049 -0.19222,-1.778013 -0.24042,-2.691062 l 0.7208,-0.0482 c 0.0482,0.864991 0.0961,1.729989 0.19222,2.594953 z m 60.54913,-4.85352 c -0.0482,-0.864991 -0.0962,-1.729989 -0.19222,-2.59498 l 0.7208,-0.09611 c 0.0962,0.864998 0.19222,1.778047 0.19222,2.691095 z m -60.06861,-0.480579 -0.7208,-0.04794 c 0.0482,-0.913049 0.14431,-1.778047 0.24042,-2.691095 l 0.72083,0.144313 c -0.0961,0.864992 -0.19222,1.729983 -0.24042,2.594947 z m 59.44389,-4.709355 c -0.19223,-0.864991 -0.38441,-1.729989 -0.67275,-2.546896 l 0.67275,-0.192222 c 0.24042,0.864991 0.48059,1.729989 0.67277,2.59498 z m -58.72303,-0.480553 -0.67277,-0.144307 c 0.19222,-0.864998 0.43249,-1.729989 0.72082,-2.594953 l 0.67275,0.240131 c -0.28833,0.816914 -0.52861,1.633848 -0.7208,2.498846 z m 57.18528,-4.517165 c -0.33639,-0.816934 -0.67276,-1.633848 -1.10526,-2.402758 l 0.62472,-0.336361 c 0.38443,0.816941 0.76888,1.633855 1.10526,2.450789 z m -55.55143,-0.480546 -0.67275,-0.240138 c 0.33636,-0.816934 0.7208,-1.633875 1.1533,-2.402731 l 0.62472,0.336388 c -0.38444,0.720799 -0.76889,1.537739 -1.10527,2.306623 z m 2.45081,-4.613273 -0.57666,-0.384445 c 0.48055,-0.76885 1.00913,-1.489683 1.53774,-2.162458 l 0.57666,0.432502 c -0.57666,0.672776 -1.05721,1.393575 -1.53774,2.114401 z m 3.21967,-4.132721 -0.5286,-0.480522 c 0.62472,-0.672774 1.2494,-1.29749 1.92221,-1.874154 l 0.48052,0.528608 c -0.67277,0.576634 -1.29746,1.201352 -1.87413,1.826068 z m 3.89245,-3.508001 -0.4325,-0.576662 c 0.72083,-0.528607 1.44166,-1.057187 2.21051,-1.53774 l 0.38444,0.576664 c -0.76888,0.528608 -1.48968,1.009131 -2.16245,1.537738 z m 32.19675,-2.594954 c -0.76886,-0.384441 -1.5858,-0.768884 -2.35468,-1.105269 l 0.24041,-0.672774 c 0.81694,0.336387 1.63387,0.720829 2.40273,1.153327 z m -27.7757,-0.192221 -0.33639,-0.624717 c 0.81691,-0.384441 1.63385,-0.768883 2.45079,-1.105269 l 0.28833,0.624717 c -0.81694,0.336387 -1.63388,0.720829 -2.40273,1.105269 z m 22.92217,-1.826098 c -0.81694,-0.288331 -1.68194,-0.480524 -2.54692,-0.672744 l 0.14426,-0.672772 c 0.86499,0.192219 1.72997,0.432468 2.59496,0.720799 z m -18.06865,-0.144309 -0.19222,-0.672774 c 0.86497,-0.240134 1.72996,-0.480552 2.59495,-0.672774 l 0.14431,0.672774 c -0.86499,0.192222 -1.72999,0.432498 -2.54692,0.672774 z m 12.97482,-1.057214 c -0.86499,-0.09612 -1.72996,-0.192222 -2.59496,-0.240137 l 0.0482,-0.720826 c 0.91306,0.04819 1.77804,0.14431 2.69106,0.240134 z m -7.83294,-0.04791 -0.0962,-0.720828 c 0.865,-0.09611 1.77804,-0.19222 2.69109,-0.19222 l 0.0482,0.720827 c -0.91305,0 -1.77802,0.09611 -2.643,0.192221 z"
         id="path3"
         style="fill:#000000;stroke-width:0.48055" /><path
         id="path23"
         style="stroke-width:0.353507"
         d="m 154.53327,60.671089 c -2.09838,0 -4.1968,0.180114 -5.60513,0.540612 -10.41687,2.66647 -17.64239,11.910576 -17.66409,22.598786 -0.008,4.089315 0.51787,6.293166 2.48211,10.397224 1.30093,2.71813 2.08719,3.819764 4.29637,6.019729 3.74734,3.73174 8.26224,5.99895 13.66286,6.86126 v 2.9e-4 c 0.58328,0.0931 2.28996,0.1084 3.7926,0.0342 8.63412,-0.42602 16.20608,-5.35959 19.8224,-12.915479 1.96424,-4.104058 2.4901,-6.307909 2.4821,-10.397224 -0.0217,-10.68821 -7.24721,-19.932316 -17.66408,-22.598786 -1.40833,-0.360498 -3.50676,-0.540612 -5.60514,-0.540612 z" /></g><g
       id="g9"
       transform="matrix(0.11182033,0,0,0.11182033,102.07396,69.808263)"
       style="fill:#ffffff"><path
         id="path7"
         d="m 131.04341,-169.14995 c 0.27464,18.54492 0.54834,37.08986 0.82102,55.63481 8.23955,-0.078 16.48505,0.0253 24.71913,-0.27906 0.8068,-0.21403 0.20613,-1.3697 0.37662,-2.00945 -0.2123,-17.92551 -0.4246,-35.85102 -0.6369,-53.77654 -1.35034,-0.6812 -2.89548,-0.23904 -4.34698,-0.33607 -6.71209,0.0815 -13.42417,0.16399 -20.13625,0.24748 -0.26627,0.17188 -0.53181,0.34488 -0.79664,0.51897 z m 1.98092,45.38012 c -0.14022,-11.83966 -0.28044,-23.67933 -0.42067,-35.51899 7.46628,-0.0884 14.93255,-0.17685 22.39882,-0.26528 0.19436,11.79149 0.38864,23.58298 0.58297,35.37448 -1.77925,0.48216 -3.70947,0.16663 -5.54364,0.3129 -5.67219,0.0692 -11.345,0.0666 -17.01748,0.0969 z"
         style="fill:#ffffff" /><path
         d="m 5.1231603,136.96251 c 1.53889,2.62705 2.64461,4.85585 5.8265997,5.60913 5.89849,1.04869 12.74718,0.0112 19.01211,0.25533 40.35851,-0.47798 80.71703,-0.95596 121.07555,-1.43394 1.71556,-1.61923 4.69748,-1.97618 5.13158,-4.91714 -0.86369,-72.925689 -1.72738,-145.8513878 -2.59106,-218.777073 -1.23966,-2.237447 -4.21836,-4.254713 -7.07311,-2.668374 -3.06156,0.650113 -2.6212,4.345117 -3.7566,7.051953 0.82027,69.2597422 1.64054,138.519485 2.46081,207.779234 -4.41272,1.69791 -9.95709,0.37053 -14.8148,0.87878 -38.09621,0.40407 -76.19244,0.80659 -114.28867,1.20888 -0.0783,-6.61282 -0.15664,-13.22564 -0.23495,-19.83846 36.25529,-0.4824 72.51057,-0.96583 108.76584,-1.45027 1.86112,-1.81705 4.61165,-1.54238 4.92747,-4.83464 -0.16147,-13.633629 -0.32294,-27.267249 -0.48441,-40.900879 -1.53175,-4.12582 -6.79789,-3.19633 -10.80794,-3.15848 -34.3282,0.35506 -68.65638,0.7115 -102.98456,1.06844 -0.0935,-7.89267 -0.18695,-15.78535 -0.28043,-23.67803 36.25527,-0.48449 72.51055,-0.96789 108.76585,-1.45031 1.85815,-1.82057 4.61432,-1.54052 4.92744,-4.83659 -0.16146,-13.63297 -0.32292,-27.2659398 -0.48438,-40.8989098 -1.05459,-3.1118092 -4.39678,-3.4669742 -7.968,-3.1899622 -35.27484,0.36707 -70.54968,0.732841 -105.82452,1.097961 -0.0935,-7.892667 -0.18695,-15.785343 -0.28043,-23.67801 36.18434,-0.481549 72.36866,-0.964178 108.55297,-1.447747 2.63613,-1.863919 5.41404,-2.161557 5.12703,-5.961245 -0.14945,-12.618995 -0.2989,-25.238 -0.44836,-37.857005 -1.53175,-4.125779 -6.79789,-3.1964 -10.80794,-3.158678 -33.68827,0.34758 -67.37652,0.69648 -101.06477,1.0459 -0.32572,-22.885115 -0.65145,-45.770235 -0.97718,-68.655355 -1.13113,-1.82172 -4.1193,-4.37456 -7.0376597,-2.58973 -2.80904,1.28025 -2.7982,4.34228 -3.7837,7.34824 0.27203,22.96937 0.54407,45.938747 0.8161,68.908116 1.53884,2.625251 2.64403,4.859749 5.8266097,5.609122 5.89851,1.04924 12.7472,0.0126 19.01213,0.257455 28.80925,-0.337199 57.61847,-0.676397 86.4277,-1.015596 1.87844,3.044898 0.33036,8.007759 0.8693,11.802453 0.0222,4.433188 0.0444,8.866365 0.0667,13.299552 -36.57493,0.486175 -73.14985,0.97343 -109.7247597,1.461625 -2.85409,1.170652 -2.61234,4.064182 -3.94433,6.868063 0.12939,10.925404 0.25879,21.850807 0.38818,32.7762112 1.61367,2.37744 1.86946,4.47693995 4.63405,5.14273995 3.8091597,1.82676005 9.0644797,0.47896 13.5589497,0.80132 31.66439,-0.37302 63.3288,-0.74503 94.99321,-1.11605 1.87921,3.04254005 0.33432,8.00666005 0.87488,11.80046985 0.028,5.07312 0.0559,10.14624 0.0838,15.21936 -36.46033,0.48682 -72.92068,0.9727 -109.3810297,1.45756 -3.29153,1.42568 -3.66458,5.06945 -4.27232,8.20128 0.12545,10.59238 0.2509,21.18475 0.37635,31.77713 1.71903,1.82982 1.85633,4.28438 4.63016,4.81464 2.6031397,1.65381 6.9998497,0.62923 10.5725397,0.83487 32.65988,-0.38281 65.31974,-0.76701 97.97959,-1.15162 1.87908,3.04502 0.33445,8.00766 0.87489,11.80243 0.0279,5.07312 0.0559,10.14624 0.0839,15.21937 -36.46036,0.484829 -72.92071,0.970689 -109.3810397,1.457559 -3.38314,1.45975 -3.5778,5.17749 -4.2734,8.10164 0.10938,9.23577 0.21876,18.47155 0.32815,27.70732 z"
         id="path9"
         style="fill:#ffffff" /></g><rect
       style="fill:#ffffff;stroke-width:0.2242"
       id="rect23"
       width="35.211887"
       height="31.971415"
       x="123.69225"
       y="53.418976" /><g
       id="g23"
       style="fill:#ffffff"
       transform="translate(59.002083,-16.139584)"><path
         d="m 98.316523,103.26115 -0.294039,0.29404 -0.29404,0.29352 v 0.26717 0.26716 l 0.260451,0.27751 0.260448,0.27698 h 0.300757 0.300757 l 0.276987,-0.26045 0.276984,-0.26045 v -0.262 -0.26199 l -0.315743,-0.31575 -0.315743,-0.31574 h -0.22841 z"
         id="path48"
         style="fill:#ffffff;stroke-width:0.264583" /><path
         d="m 93.569009,103.26115 -0.315227,0.24805 -0.315743,0.24804 v 0.31316 0.31264 l 0.26045,0.27751 0.260448,0.27698 h 0.300757 0.300757 l 0.276987,-0.26045 0.277503,-0.26045 v -0.262 -0.26199 l -0.315743,-0.31575 -0.315743,-0.31574 h -0.207224 z"
         id="path47"
         style="fill:#ffffff;stroke-width:0.264583" /><path
         d="m 89.140855,103.26115 -0.316775,0.29352 -0.316778,0.29352 v 0.30541 0.30489 l 0.239263,0.23978 0.239779,0.23926 h 0.321426 0.321429 l 0.2775,-0.26045 0.276987,-0.26045 v -0.262 -0.26199 l -0.315743,-0.31575 -0.315743,-0.31574 h -0.205671 z"
         id="path46"
         style="fill:#ffffff;stroke-width:0.264583" /><path
         d="m 84.304976,103.26115 -0.29404,0.29404 -0.294039,0.29352 v 0.30489 0.30489 l 0.239778,0.23978 0.239263,0.23926 h 0.290939 0.29042 l 0.248046,-0.31574 0.248566,-0.31523 v -0.20722 -0.2067 l -0.315743,-0.31575 -0.315743,-0.31574 h -0.168982 z"
         id="path45"
         style="fill:#ffffff;stroke-width:0.264583" /><path
         d="m 79.698537,103.26115 -0.265099,0.18552 -0.265618,0.18603 -0.124023,0.23203 -0.124539,0.23254 0.1788,0.34572 0.179318,0.34571 0.193786,0.0744 0.193787,0.0744 h 0.280603 0.28112 l 0.248047,-0.31574 0.248563,-0.31523 v -0.20722 -0.2067 l -0.315743,-0.31575 -0.315743,-0.31574 h -0.196887 z"
         id="path44"
         style="fill:#ffffff;stroke-width:0.264583" /><path
         d="m 74.956191,103.26115 -0.349848,0.34985 -0.350367,0.34985 v 0.17156 0.17157 l 0.29404,0.31678 0.293521,0.31677 h 0.310575 0.310576 l 0.29404,-0.29404 0.294039,-0.29404 v -0.1328 -0.13333 l -0.139528,-0.26148 -0.139525,-0.26148 -0.189654,-0.14573 -0.190169,-0.14625 -0.218591,-0.004 z"
         id="path43"
         style="fill:#ffffff;stroke-width:0.264583" /><path
         d="m 70.285676,103.26115 -0.349848,0.34985 -0.349851,0.34985 v 0.1943 0.1943 l 0.293521,0.29404 0.29404,0.29404 h 0.310575 0.310576 l 0.293521,-0.31677 0.294039,-0.31678 v -0.19999 -0.19947 l -0.335896,-0.32194 -0.335896,-0.32143 h -0.212389 z"
         id="path42"
         style="fill:#ffffff;stroke-width:0.264583" /><path
         d="m 65.55935,103.26115 -0.252698,0.23513 -0.252698,0.23564 -0.08217,0.25787 -0.08165,0.25786 0.234611,0.31523 0.235128,0.31471 0.206189,0.0408 0.206705,0.0403 0.286804,-0.0718 0.286805,-0.0724 0.177767,-0.32763 0.177767,-0.32763 0.0047,-0.0377 0.0052,-0.0382 -0.139526,-0.26148 -0.13901,-0.26148 -0.190169,-0.14573 -0.190169,-0.14625 -0.246497,-0.004 z"
         id="path41"
         style="fill:#ffffff;stroke-width:0.264583" /><path
         d="m 95.213352,102.902 -0.209288,0.0139 -0.209807,0.0139 -0.35915,0.0827 -0.359151,0.0822 0.251145,0.0853 0.251148,0.0858 0.137977,0.30231 0.137975,0.30282 v 0.30179 0.30179 l -0.12919,0.24185 -0.129707,0.24133 -0.409279,0.17105 -0.409276,0.17156 -0.396875,-0.16588 -0.396875,-0.16588 -0.18397,-0.38086 -0.184483,-0.38033 0.05529,-0.29042 0.05581,-0.29094 0.302307,-0.30231 0.302308,-0.30231 h -0.495578 -0.495578 v 1.49707 1.49707 h 0.08062 0.08062 l 0.230992,-0.20981 0.23151,-0.20929 0.855763,0.006 0.855761,0.006 0.269753,0.0977 0.269232,0.0971 v -1.45107 z"
         id="path40"
         style="fill:#ffffff;stroke-width:0.264583" /><path
         d="m 100.00376,102.90148 -0.209809,0.0145 -0.209288,0.014 -0.359151,0.0822 -0.359669,0.0822 0.251664,0.0858 0.251147,0.0853 0.137978,0.30282 0.137975,0.30283 v 0.30179 0.30127 l -0.129707,0.24185 -0.129191,0.24184 -0.39946,0.16692 -0.398941,0.16691 -0.361736,-0.12609 -0.361735,-0.12609 -0.167947,-0.26045 -0.168466,-0.26045 -0.07286,-0.3731 -0.07286,-0.37259 0.366903,-0.37569 0.367419,-0.37569 h -0.492993 -0.493511 v 1.49707 1.49707 h 0.08062 0.0801 l 0.232545,-0.20981 0.232026,-0.20929 1.124479,0.002 1.124478,0.002 v -1.34876 z"
         id="path39"
         style="fill:#ffffff;stroke-width:0.264583" /><path
         d="m 87.908373,102.90148 v 1.55495 1.55494 l 0.476456,-0.24805 0.476457,-0.24856 0.69143,0.0481 0.690914,0.0481 0.209807,0.0951 0.209291,0.0956 v -1.45004 -1.45004 H 89.28555 Z m 0.990637,0.11989 h 0.412377 0.411861 l 0.349851,0.35037 0.350366,0.34984 v 0.40567 0.40566 l -0.251148,0.26975 -0.251147,0.26923 -0.274918,0.1049 -0.274918,0.10439 -0.282671,-0.0687 -0.282154,-0.0682 -0.269235,-0.24392 -0.26975,-0.24391 v -0.50178 -0.50177 l 0.315743,-0.31575 z m -23.33966,0.23978 0.247013,0.004 0.246497,0.004 0.190169,0.14624 0.190169,0.14573 0.13901,0.26148 0.139526,0.26149 -0.0052,0.0382 -0.0047,0.0377 -0.177767,0.32763 -0.177766,0.32763 -0.286805,0.0723 -0.286804,0.0718 -0.206706,-0.0403 -0.206189,-0.0408 -0.235127,-0.31471 -0.234612,-0.31522 0.08165,-0.25787 0.08217,-0.25786 0.252698,-0.23565 z m 4.726326,0 h 0.212392 0.212389 l 0.335896,0.32143 0.335896,0.32194 v 0.19947 0.19999 l -0.294039,0.31678 -0.293521,0.31677 h -0.310576 -0.310575 l -0.29404,-0.29404 -0.293521,-0.29404 v -0.1943 -0.1943 l 0.349851,-0.34985 z"
         id="path38"
         style="fill:#ffffff;stroke-width:0.264583" /><path
         d="m 78.447453,102.90148 v 1.63763 1.63762 l 0.301273,-0.28267 0.301273,-0.28267 0.710033,-0.0517 0.710552,-0.0512 0.365868,0.12764 0.365871,0.12712 v -1.43092 -1.43092 h -1.377696 z m 0.993219,0.11989 h 0.413411 0.413412 l 0.347784,0.37207 0.347266,0.37207 v 0.38396 0.38344 l -0.251148,0.26975 -0.250632,0.26923 -0.275434,0.1049 -0.27492,0.10439 -0.282152,-0.0687 -0.282154,-0.0682 -0.269751,-0.24392 -0.269235,-0.24391 v -0.524 -0.52348 l 0.316778,-0.29404 z"
         id="path37"
         style="fill:#ffffff;stroke-width:0.264583" /><path
         d="m 73.777454,102.90148 v 1.61334 1.61334 l 0.435631,-0.29611 0.435631,-0.29559 h 0.634587 0.634071 l 0.306957,0.11679 0.307475,0.11679 v -1.43402 -1.43454 h -1.377178 z m 1.069183,0.11989 h 0.311611 0.311092 l 0.230476,0.12351 0.230475,0.12299 0.18087,0.34985 0.180866,0.34985 v 0.28267 0.28267 l -0.251148,0.26975 -0.250629,0.26923 -0.286806,0.10904 -0.287319,0.10904 -0.210325,-0.0672 -0.210838,-0.0672 -0.266134,-0.12765 -0.266134,-0.12764 -0.134874,-0.40772 -0.134361,-0.40721 0.143661,-0.34675 0.143145,-0.34623 0.283186,-0.18552 z"
         id="path36"
         style="fill:#ffffff;stroke-width:0.264583" /><path
         d="m 85.872322,102.87409 -0.269234,0.0718 -0.269235,0.0724 -0.257866,0.002 -0.257349,0.002 0.347265,0.37207 0.347266,0.37207 v 0.39016 0.39016 l -0.315741,0.31574 -0.315743,0.31575 -0.19327,0.0134 -0.19327,0.0139 -0.239263,-0.0248 -0.239779,-0.0243 -0.269234,-0.2496 -0.269232,-0.24959 v -0.524 -0.52349 l 0.316775,-0.29403 0.316777,-0.29353 h -0.366903 -0.366903 l -0.189653,-0.0729 -0.189135,-0.0724 v 1.62936 1.62936 h 0.08217 0.08165 l 0.279053,-0.26148 0.278535,-0.26201 0.707451,-0.0512 0.706932,-0.0512 0.368972,0.18397 0.368969,0.18449 v -1.50172 z"
         id="path35"
         style="fill:#ffffff;stroke-width:0.264583" /><path
         d="m 64.436421,102.87409 v 1.65106 1.65158 l 0.300757,-0.28267 0.301273,-0.28267 0.710551,-0.0517 0.710551,-0.0512 0.365352,0.12764 0.365871,0.12712 v -1.37097 -1.37098 H 66.702432 66.21409 l 0.368453,0.36845 0.368453,0.36846 v 0.34106 0.34055 l -0.29869,0.35553 -0.299206,0.35554 -0.291455,0.0729 -0.291456,0.0734 -0.296105,-0.11265 -0.296106,-0.11266 -0.251148,-0.26923 -0.251147,-0.26975 v -0.38706 -0.38757 l 0.368453,-0.36846 0.368453,-0.36845 -0.218592,-0.002 -0.218591,-0.002 -0.269751,-0.0724 z"
         id="path34"
         style="fill:#ffffff;stroke-width:0.264583" /><path
         d="m 69.106936,102.87358 v 1.65157 1.65158 l 0.300757,-0.28267 0.301273,-0.28267 0.710552,-0.0517 0.710552,-0.0512 0.360185,0.12557 0.360183,0.12557 0.04186,-0.80046 0.04186,-0.79996 0.02376,-0.64182 0.02326,-0.6413 -0.189135,0.0724 -0.189653,0.0729 h -0.358635 -0.358632 l 0.368451,0.36845 0.368453,0.36846 v 0.29817 0.29817 l -0.137459,0.25632 -0.137459,0.25683 -0.251663,0.21032 -0.251664,0.21084 -0.302826,0.004 -0.302824,0.004 -0.296106,-0.20412 -0.296106,-0.20412 -0.145727,-0.185 -0.145727,-0.185 -0.0041,-0.38034 -0.0041,-0.37982 0.368453,-0.36846 0.368454,-0.36845 -0.218594,-0.002 -0.219106,-0.002 -0.269235,-0.0724 z"
         id="path33"
         style="fill:#ffffff;stroke-width:0.264583" /><path
         d="m 101.08173,96.913734 v 0.95808 0.95808 h 1.02474 1.02475 l -0.18656,-0.266134 -0.18655,-0.266134 v -0.45992 -0.460435 l 0.12403,-0.231511 0.12402,-0.232026 h -0.96222 z"
         id="path32"
         style="fill:#ffffff;stroke-width:0.264583" /><path
         d="m 102.878,92.003956 v 0.05994 0.05994 h 0.06 0.0599 v -0.05994 -0.05994 h -0.0599 z"
         id="path31"
         style="fill:#ffffff;stroke-width:0.264583" /><path
         d="m 101.08173,91.524915 v 0.95808 0.958083 h 0.96221 0.96222 l -0.12402,-0.231511 -0.12403,-0.232029 v -0.531749 -0.532267 l 0.17984,-0.149344 0.17931,-0.148829 v -0.04548 -0.04496 h -1.01802 z"
         id="path30"
         style="fill:#ffffff;stroke-width:0.264583" /><path
         d="m 101.08173,86.495247 v 0.958082 0.95808 h 1.02474 1.02475 l -0.18656,-0.266133 -0.18655,-0.266134 v -0.460436 -0.460439 l 0.12403,-0.23151 0.12402,-0.23151 h -0.96222 z"
         id="path29"
         style="fill:#ffffff;stroke-width:0.264583" /><path
         d="m 101.08173,81.225802 v 0.95808 0.95808 h 1.02474 1.02475 l -0.18656,-0.266131 -0.18655,-0.266133 v -0.460439 -0.45992 l 0.12403,-0.232026 0.12402,-0.231511 h -0.96222 z"
         id="path28"
         style="fill:#ffffff;stroke-width:0.264583" /><path
         d="m 101.08173,76.795063 v 0.958083 0.95808 h 1.03611 1.03663 l -0.19792,-0.219107 -0.19844,-0.219109 v -0.507463 -0.507463 l 0.12403,-0.23151 0.12402,-0.231511 h -0.96222 z"
         id="path27"
         style="fill:#ffffff;stroke-width:0.264583" /><path
         d="m 101.08173,71.525619 v 0.95808 0.958083 h 0.94413 0.94361 l -0.1664,-0.483693 -0.16691,-0.484208 0.0775,-0.324528 0.0775,-0.324527 0.11782,-0.149347 0.11782,-0.14986 h -0.97255 z"
         id="path26"
         style="fill:#ffffff;stroke-width:0.264583" /><path
         d="m 70.78332,66.110445 -0.297656,0.07493 -0.29714,0.07493 -0.07493,0.297139 -0.07493,0.297657 0.07234,0.287321 0.07235,0.287837 0.329698,0.114205 0.33021,0.114722 0.256834,-0.115238 0.256831,-0.115239 0.124023,-0.256832 0.12454,-0.256831 0.0083,-0.02429 0.0078,-0.02429 -0.140044,-0.307991 -0.14056,-0.307992 -0.278535,-0.06976 z"
         id="path54"
         style="fill:#ffffff;stroke-width:0.264583" /><path
         d="m 65.958292,66.037582 -0.248047,0.09198 -0.248564,0.09147 -0.220658,0.295589 -0.220659,0.295589 0.14056,0.307475 0.140044,0.307992 0.281636,0.128157 0.281637,0.128158 0.357084,-0.124024 0.356567,-0.12454 0.113171,-0.319877 0.113172,-0.320394 -0.148828,-0.239262 -0.149345,-0.239778 -0.273885,-0.13901 z"
         id="path52"
         style="fill:#ffffff;stroke-width:0.264583" /><path
         d="m 98.326858,66.016911 -0.239779,0.239262 -0.23926,0.239779 0.0041,0.269234 0.0036,0.269751 0.146246,0.189652 0.145727,0.19017 0.269235,0.14366 0.26975,0.14366 0.269235,-0.14366 0.269751,-0.14366 0.145727,-0.19017 0.145211,-0.189652 0.0041,-0.247014 0.0036,-0.247013 -0.243917,-0.261999 -0.24443,-0.262 H 98.68136 Z"
         id="path22"
         style="fill:#ffffff;stroke-width:0.264583" /><path
         d="m 98.326858,66.016911 h 0.354502 0.354499 l 0.24443,0.262 0.243911,0.261999 -0.0036,0.247013 -0.0041,0.247014 -0.145211,0.189652 -0.145727,0.19017 -0.269751,0.14366 -0.269235,0.14366 -0.26975,-0.14366 -0.269235,-0.14366 -0.145727,-0.19017 -0.146246,-0.189652 -0.0036,-0.269751 -0.0041,-0.269234 0.23926,-0.239779 z"
         id="path21"
         style="fill:#ffffff;stroke-width:0.264583" /><path
         d="m 93.656859,66.016911 -0.239779,0.239262 -0.239263,0.239779 v 0.229443 0.22996 l 0.07441,0.193787 0.07441,0.193786 0.345718,0.178801 0.345715,0.1788 0.268201,-0.142627 0.268716,-0.143143 0.145727,-0.19017 0.14573,-0.189652 0.0036,-0.247014 0.0041,-0.247013 -0.243911,-0.261999 -0.24443,-0.262 h -0.3545 z"
         id="path20"
         style="fill:#ffffff;stroke-width:0.264583" /><path
         d="m 93.656859,66.016911 h 0.354502 0.354499 l 0.24443,0.262 0.243911,0.261999 -0.0041,0.247013 -0.0036,0.247014 -0.14573,0.189652 -0.145727,0.19017 -0.268716,0.143143 -0.2682,0.142627 -0.345715,-0.1788 -0.345718,-0.178801 -0.07441,-0.193786 -0.07441,-0.193787 v -0.22996 -0.229443 l 0.239262,-0.239779 z"
         id="path19"
         style="fill:#ffffff;stroke-width:0.264583" /><path
         d="m 88.986344,66.016911 -0.239779,0.239262 -0.239263,0.239779 v 0.229443 0.22996 l 0.07441,0.193787 0.07441,0.193786 0.345716,0.178801 0.345715,0.1788 0.2682,-0.142627 0.268719,-0.143143 0.145727,-0.19017 0.145727,-0.189652 0.0036,-0.232027 0.0041,-0.231511 -0.26045,-0.277502 -0.260448,-0.276986 h -0.337966 z"
         id="path18"
         style="fill:#ffffff;stroke-width:0.264583" /><path
         d="m 88.986344,66.016911 h 0.338478 0.337966 l 0.260448,0.276986 0.26045,0.277502 -0.0041,0.231511 -0.0036,0.232027 -0.145727,0.189652 -0.145727,0.19017 -0.268719,0.143143 -0.2682,0.142627 -0.345715,-0.1788 -0.345716,-0.178801 -0.07441,-0.193786 -0.07441,-0.193787 v -0.22996 -0.229443 l 0.239263,-0.239779 z"
         id="path17"
         style="fill:#ffffff;stroke-width:0.264583" /><path
         d="m 84.361303,66.016911 -0.187587,0.149862 -0.187585,0.149345 -0.121957,0.232027 -0.121954,0.232027 0.130741,0.285771 0.130223,0.286287 0.339516,0.1757 0.339513,0.175183 0.146243,-0.08217 0.14573,-0.08268 0.269751,-0.242879 0.269232,-0.242362 V 66.812211 66.571399 L 85.252721,66.293897 84.99227,66.016911 h -0.315224 z"
         id="path16"
         style="fill:#ffffff;stroke-width:0.264583" /><path
         d="m 84.361303,66.016911 h 0.315743 0.315224 l 0.260451,0.276986 0.260448,0.277502 v 0.240812 0.240813 l -0.269232,0.242362 -0.269751,0.242879 -0.14573,0.08268 -0.146243,0.08217 -0.339513,-0.175183 -0.339516,-0.1757 -0.130223,-0.286287 -0.130741,-0.285771 0.121954,-0.232027 0.121957,-0.232027 0.187585,-0.149345 z"
         id="path15"
         style="fill:#ffffff;stroke-width:0.264583" /><path
         d="m 79.753314,66.016911 -0.293521,0.316777 -0.293523,0.316776 v 0.155546 0.155546 l 0.275952,0.320911 0.276469,0.321427 h 0.328663 0.329178 l 0.293005,-0.275435 0.293008,-0.275435 V 66.850452 66.64788 l -0.248047,-0.315226 -0.248566,-0.315743 h -0.356049 z"
         id="path14"
         style="fill:#ffffff;stroke-width:0.264583" /><path
         d="m 79.753314,66.016911 h 0.356569 0.356049 l 0.248566,0.315743 0.248047,0.315226 v 0.202572 0.202572 l -0.293008,0.275435 -0.293005,0.275435 H 80.047354 79.718691 L 79.442222,67.282467 79.16627,66.961556 V 66.80601 66.650464 l 0.293523,-0.316776 z"
         id="path13"
         style="fill:#ffffff;stroke-width:0.264583" /><path
         d="m 83.23734,64.95341 v 1.489832 1.489831 h 0.548288 0.548285 l -0.368451,-0.310058 -0.368453,-0.310059 0.0036,-0.498161 0.0041,-0.498677 0.14573,-0.189653 0.146243,-0.190169 0.261482,-0.139527 0.261483,-0.139009 h 0.298175 0.298172 l 0.368453,0.368453 0.368451,0.368453 v 0.400492 0.401009 l -0.368451,0.368453 -0.368453,0.368453 h 0.487825 0.487826 V 66.443242 64.95341 l -0.329179,0.171566 -0.329178,0.172082 h -0.71882 -0.718302 l -0.329179,-0.172082 z"
         id="path9-1"
         style="fill:#ffffff;stroke-width:0.264583" /><path
         d="m 92.579406,64.933773 v 1.500167 1.49965 l 0.568439,-0.0036 0.568958,-0.0041 -0.23926,-0.13746 -0.239779,-0.137459 -0.145727,-0.188102 -0.14573,-0.188619 -0.0041,-0.498161 -0.0041,-0.498161 0.368453,-0.310058 0.368454,-0.310059 h 0.341064 0.340547 l 0.368454,0.368453 0.368453,0.368453 v 0.400492 0.40101 l -0.368453,0.368452 -0.368454,0.368453 h 0.548288 l 0.54777,5.3e-4 -0.0011,-1.047482 -0.0011,-1.047998 -0.07338,-0.44545 -0.07389,-0.445451 -0.251148,0.176216 -0.251148,0.1757 h -0.757576 -0.757576 l -0.353468,-0.182934 z"
         id="path8"
         style="fill:#ffffff;stroke-width:0.264583" /><path
         d="m 74.808397,66.106828 -0.275952,0.320911 -0.276469,0.32091 v 0.106454 0.106453 l 0.276469,0.320911 0.275952,0.321427 h 0.346231 0.345715 l 0.275953,-0.321427 0.276471,-0.320911 v -0.106453 -0.106454 l -0.276471,-0.32091 -0.275953,-0.320911 h -0.345715 z"
         id="path53"
         style="fill:#ffffff;stroke-width:0.264583" /><path
         d="m 73.777454,64.933773 v 1.559595 1.559594 h 1.377174 1.377178 v -1.509985 -1.509468 l -0.209807,0.09715 -0.209807,0.09663 -0.874363,0.04548 -0.874366,0.04496 -0.293005,-0.192236 z m 1.174604,0.843876 h 0.298172 0.298175 l 0.371552,0.347266 0.37207,0.347266 v 0.382922 0.382922 l -0.37207,0.347783 -0.371552,0.347265 h -0.358119 -0.358119 l -0.334346,-0.238228 -0.334862,-0.238228 -0.0801,-0.319361 -0.0801,-0.318844 0.131776,-0.317809 0.131773,-0.318327 0.342614,-0.202572 z"
         id="path51"
         style="fill:#ffffff;stroke-width:0.264583" /><path
         d="m 97.249405,64.932739 v 1.500167 1.500167 h 0.548286 0.547769 l -0.36845,-0.310058 -0.368454,-0.310059 v -0.517798 -0.517281 l 0.368454,-0.310058 0.36845,-0.310059 h 0.341067 0.340548 l 0.36845,0.368453 0.368973,0.368453 v 0.419096 0.419096 l -0.350367,0.349849 -0.349851,0.350366 h 0.529683 0.529687 v -1.451074 -1.451074 l -0.269752,0.0863 -0.269235,0.08682 -0.790133,0.05943 -0.790133,0.05994 -0.377754,-0.195336 z"
         id="path5"
         style="fill:#ffffff;stroke-width:0.264583" /><path
         d="m 87.908373,64.932739 v 1.500167 1.500167 h 0.501261 0.501777 L 88.589469,67.597176 88.267524,67.26128 v -0.49196 -0.491443 l 0.368453,-0.310058 0.368454,-0.310059 h 0.341063 0.341064 l 0.368454,0.368453 0.368453,0.368453 v 0.400492 0.401009 l -0.368453,0.368453 -0.368454,0.368453 h 0.487826 0.488344 v -1.450041 -1.449523 l -0.209291,0.09612 -0.209807,0.09664 -0.796332,0.04547 -0.796335,0.04547 -0.371036,-0.192236 z"
         id="path4"
         style="fill:#ffffff;stroke-width:0.264583" /><path
         d="m 78.687231,64.925505 v 1.503784 1.503784 h 0.501777 0.501261 l -0.269234,-0.251147 -0.269233,-0.251148 -0.112656,-0.296106 -0.112655,-0.296106 0.07286,-0.291455 0.07338,-0.291455 0.355015,-0.299206 0.355534,-0.29869 h 0.341067 0.340547 l 0.368451,0.368453 0.368972,0.368453 v 0.400492 0.401009 L 80.833351,67.56462 80.4649,67.933073 h 0.548286 l 0.548288,-5.29e-4 v -1.496549 -1.497067 h -0.04599 -0.04651 l -0.343133,0.178801 -0.342614,0.1788 -0.781865,10e-4 -0.781862,5.29e-4 -0.266134,-0.186035 z"
         id="path3-3"
         style="fill:#ffffff;stroke-width:0.264583" /><path
         d="m 64.555793,64.925505 v 1.563729 1.563728 h 1.377177 1.377694 v -1.563728 -1.563729 l -0.26665,0.186552 -0.266134,0.186552 h -0.84491 -0.844393 l -0.266133,-0.186552 z m 0.983403,0.852144 0.376721,5.29e-4 0.376721,5.3e-4 0.329179,0.268717 0.328662,0.269234 0.05736,0.359151 0.05684,0.359152 -0.104902,0.248047 -0.104903,0.248046 -0.306958,0.201022 -0.306958,0.201021 h -0.350883 -0.350883 l -0.371554,-0.347266 -0.37207,-0.347265 v -0.382923 -0.382922 l 0.37207,-0.347782 z"
         id="path50"
         style="fill:#ffffff;stroke-width:0.264583" /><path
         d="m 69.346199,64.911552 v 1.570447 1.570963 h 1.437121 1.437122 v -1.560111 -1.560112 l -0.353468,0.182935 -0.353465,0.182935 H 70.724927 69.936344 L 69.64127,65.104822 Z m 0.959114,0.931209 h 0.491443 0.490926 l 0.286803,0.333313 0.286806,0.333314 v 0.361734 0.361736 l -0.350367,0.349849 -0.34985,0.350366 h -0.361733 -0.361736 l -0.333314,-0.286804 -0.333312,-0.286804 v -0.490926 -0.490926 l 0.267166,-0.267684 z"
         id="path49"
         style="fill:#ffffff;stroke-width:0.264583" /></g></g></svg>
